HIERARCHY
ROOT Hips
{
	OFFSET 0.000000 0.000000 0.000000
	CHANNELS 6 Xposition Yposition Zposition Zrotation Yrotation Xrotation 
	JOINT LowerBack
	{
		OFFSET 0.000000 0.000000 0.000000
		CHANNELS 3 Zrotation Yrotation Xrotation
		JOINT Spine
		{
			OFFSET 0.028270 2.035590 -0.193380
			CHANNELS 3 Zrotation Yrotation Xrotation
			JOINT Spine1
			{
				OFFSET 0.056720 2.048850 -0.042750
				CHANNELS 3 Zrotation Yrotation Xrotation
				JOINT Neck
				{
					OFFSET 0.000000 0.000000 0.000000
					CHANNELS 3 Zrotation Yrotation Xrotation
					JOINT Neck1
					{
						OFFSET -0.054170 1.746240 0.172020
						CHANNELS 3 Zrotation Yrotation Xrotation
						JOINT Head
						{
							OFFSET 0.104070 1.761360 -0.123970
							CHANNELS 3 Zrotation Yrotation Xrotation
							End Site
							{
								OFFSET 0.000000 0.000000 0.000000
							}
						}
					}
				}
				JOINT LeftShoulder
				{
					OFFSET 0.000000 0.000000 0.000000
					CHANNELS 3 Zrotation Yrotation Xrotation
					JOINT LeftArm
					{
						OFFSET 3.362410 1.200890 -0.311210
						CHANNELS 3 Zrotation Yrotation Xrotation
						JOINT LeftForeArm
						{
							OFFSET 4.983000 -0.000000 -0.000000
							CHANNELS 3 Zrotation Yrotation Xrotation
							JOINT LeftHand
							{
								OFFSET 3.483560 -0.000000 -0.000000
								CHANNELS 3 Zrotation Yrotation Xrotation
								JOINT LeftFingerBase
								{
									OFFSET 0.000000 0.000000 0.000000
									CHANNELS 3 Zrotation Yrotation Xrotation
									JOINT LeftHandIndex1
									{
										OFFSET 0.715260 -0.000000 -0.000000
										CHANNELS 3 Zrotation Yrotation Xrotation
										End Site
										{
											OFFSET 0.000000 0.000000 0.000000
										}
									}
								}
								JOINT LThumb
								{
									OFFSET 0.000000 0.000000 0.000000
									CHANNELS 3 Zrotation Yrotation Xrotation
									End Site
									{
										OFFSET 0.000000 0.000000 0.000000
									}
								}
							}
						}
					}
				}
				JOINT RightShoulder
				{
					OFFSET 0.000000 0.000000 0.000000
					CHANNELS 3 Zrotation Yrotation Xrotation
					JOINT RightArm
					{
						OFFSET -3.136600 1.374050 -0.404650
						CHANNELS 3 Zrotation Yrotation Xrotation
						JOINT RightForeArm
						{
							OFFSET -5.241900 -0.000000 -0.000000
							CHANNELS 3 Zrotation Yrotation Xrotation
							JOINT RightHand
							{
								OFFSET -3.444170 -0.000000 -0.000000
								CHANNELS 3 Zrotation Yrotation Xrotation
								JOINT RightFingerBase
								{
									OFFSET 0.000000 0.000000 0.000000
									CHANNELS 3 Zrotation Yrotation Xrotation
									JOINT RightHandIndex1
									{
										OFFSET -0.622530 -0.000000 -0.000000
										CHANNELS 3 Zrotation Yrotation Xrotation
										End Site
										{
											OFFSET 0.000000 0.000000 0.000000
										}
									}
								}
								JOINT RThumb
								{
									OFFSET 0.000000 0.000000 0.000000
									CHANNELS 3 Zrotation Yrotation Xrotation
									End Site
									{
										OFFSET 0.000000 0.000000 0.000000
									}
								}
							}
						}
					}
				}
			}
		}
	}
}
}
MOTION
Frames: 15
Frame Time: 0.008333
-5.499053 14.536160 -0.877453 -173.452792 -84.382313 -120.643432 3.911320 -0.673893 -1.773785 0.121624 -0.951514 -3.875842 -5.165039 -1.020702 -2.111091 10.353209 -8.015968 -10.318405 -2.821672 -0.128730 -1.705621 0.000000 0.000000 0.000000 3.567785 8.315321 2.918411 -68.031314 -9.284125 -0.924940 0.055641 -89.528391 -0.073849 8.904588 1.012861 0.044268 -0.190264 0.471719 0.000000 0.000000 0.000000 0.000000 0.000000 0.000000 0.000000 11.794894 -2.457585 1.952823 68.549797 4.010538 7.382329 -179.948495 88.160230 179.874042 -18.517522 12.853423 -2.243588 0.301678 -0.632979 0.000000 0.000000 0.000000 0.000000 0.000000 0.000000 0.000000 
-5.511536 14.558960 -0.900210 -173.113194 -84.286502 -121.842554 4.057568 -0.671840 -1.806888 0.159387 -0.959664 -3.866207 -5.176481 -1.033358 -2.017820 10.380643 -8.140842 -10.489221 -2.809028 -0.126277 -1.737008 0.000000 0.000000 0.000000 3.519479 8.365392 2.966651 -67.944156 -8.833641 -0.916208 -0.025900 -87.543962 -0.075187 9.316847 0.803752 0.029535 -0.191179 0.463059 0.000000 0.000000 0.000000 0.000000 0.000000 0.000000 0.000000 11.976022 -2.616632 2.012564 68.548974 4.121006 7.345098 0.077987 89.737261 -0.121117 -18.450536 13.067858 -2.268206 0.295245 -0.618718 0.000000 0.000000 0.000000 0.000000 0.000000 0.000000 0.000000 
-5.526502 14.583829 -0.923357 -172.671870 -84.181210 -123.217637 4.211660 -0.674640 -1.838919 0.196900 -0.973685 -3.855135 -5.197388 -1.051971 -1.916255 10.382026 -8.265976 -10.659966 -2.804037 -0.124536 -1.766269 0.000000 0.000000 0.000000 3.470794 8.402449 3.016659 -67.863590 -8.269266 -0.893033 -0.102569 -85.546063 -0.075887 9.698175 0.545549 0.009109 -0.191786 0.453923 -0.000000 0.000000 0.000000 0.000000 0.000000 0.000000 0.000000 12.154737 -2.783643 2.070858 68.561039 4.231975 7.297171 0.110886 87.538194 -0.115930 -18.369071 13.319920 -2.296925 0.288713 -0.604143 0.000000 0.000000 0.000000 0.000000 0.000000 0.000000 0.000000 
-5.544267 14.610951 -0.946598 -172.047170 -84.064566 -124.852048 4.383899 -0.678742 -1.865264 0.236146 -0.990355 -3.839718 -5.228887 -1.073110 -1.800139 10.349045 -8.402978 -10.832240 -2.806118 -0.123451 -1.793730 0.000000 0.000000 0.000000 3.400217 8.451921 3.067387 -67.786469 -7.610353 -0.842255 -0.176689 -83.516121 -0.075543 10.000662 0.254081 -0.015710 -0.191512 0.443739 -0.000000 0.000000 0.000000 0.000000 0.000000 0.000000 0.000000 12.323529 -2.970168 2.123629 68.584386 4.349510 7.244150 0.150943 85.248344 -0.110530 -18.294909 13.602477 -2.331242 0.282497 -0.589108 0.000000 0.000000 0.000000 0.000000 0.000000 0.000000 0.000000 
-5.565133 14.640273 -0.970058 -171.317575 -83.935144 -126.665909 4.572114 -0.684025 -1.890654 0.276351 -1.009695 -3.821076 -5.271466 -1.096802 -1.667780 10.274449 -8.548661 -10.999570 -2.815443 -0.123166 -1.816859 0.000000 0.000000 0.000000 3.296731 8.512025 3.118523 -67.713514 -6.843956 -0.773589 -0.250983 -81.443960 -0.073814 10.177910 -0.049475 -0.042525 -0.189778 0.431870 -0.000000 0.000000 0.000000 0.000000 0.000000 0.000000 0.000000 12.475663 -3.174094 2.167129 68.621841 4.454200 7.177862 0.198362 82.881996 -0.105034 -18.245606 13.907643 -2.372257 0.276837 -0.573513 0.000000 0.000000 0.000000 0.000000 0.000000 0.000000 0.000000 
-5.589227 14.672030 -0.993824 -170.537388 -83.792468 -128.607351 4.775994 -0.689891 -1.915178 0.317432 -1.031092 -3.798098 -5.324589 -1.122300 -1.514366 10.152475 -8.708373 -11.158444 -2.830671 -0.123646 -1.834170 0.000000 0.000000 0.000000 3.146966 8.597196 3.168237 -67.644605 -5.981321 -0.690104 -0.329220 -79.305034 -0.070523 10.196639 -0.341400 -0.067836 -0.186290 0.417725 -0.000000 0.000000 0.000000 0.000000 0.000000 0.000000 0.000000 12.601995 -3.402680 2.196593 68.676225 4.541243 7.097128 0.253069 80.448713 -0.099538 -18.239713 14.226665 -2.420972 0.271982 -0.557227 0.000000 0.000000 0.000000 0.000000 0.000000 0.000000 0.000000 
-5.616752 14.706278 -1.018183 -169.824350 -83.636388 -130.557132 4.987458 -0.697770 -1.941129 0.357774 -1.055643 -3.770207 -5.386708 -1.150595 -1.335052 9.981299 -8.886872 -11.304915 -2.849999 -0.124823 -1.844119 0.000000 0.000000 0.000000 2.942417 8.721693 3.214232 -67.579857 -5.035672 -0.600251 -0.415541 -77.071148 -0.065669 10.036839 -0.595805 -0.087946 -0.180986 0.400778 -0.000000 0.000000 0.000000 0.000000 0.000000 0.000000 0.000000 12.696131 -3.663888 2.207243 68.750265 4.605660 7.001190 0.314688 77.957307 -0.094093 -18.292065 14.550183 -2.478285 0.268100 -0.540121 0.000000 0.000000 0.000000 0.000000 0.000000 0.000000 0.000000 
-5.647678 14.743353 -1.043565 -169.316118 -83.468266 -132.379244 5.193374 -0.709838 -1.969931 0.394825 -1.084831 -3.736991 -5.455324 -1.183063 -1.126410 9.761984 -9.086985 -11.434185 -2.871291 -0.126604 -1.845031 0.000000 0.000000 0.000000 2.680599 8.895233 3.253912 -67.519877 -4.020633 -0.520463 -0.513963 -74.714196 -0.059435 9.694659 -0.785481 -0.099560 -0.174033 0.380625 -0.000000 0.000000 0.000000 0.000000 0.000000 0.000000 0.000000 12.752329 -3.963793 2.195002 68.848086 4.641500 6.886176 0.382578 75.417355 -0.088714 -18.411025 14.868990 -2.544296 0.265234 -0.522105 0.000000 0.000000 0.000000 0.000000 0.000000 0.000000 0.000000 
-5.681874 14.783558 -1.070557 -169.177180 -83.289666 -133.908104 5.373566 -0.729799 -2.003401 0.424749 -1.121246 -3.698132 -5.527006 -1.222189 -0.885404 9.500434 -9.311955 -11.542913 -2.892174 -0.128844 -1.835943 0.000000 0.000000 0.000000 2.364700 9.129220 3.284560 -67.464466 -2.954982 -0.471178 -0.628126 -72.206665 -0.052180 9.182695 -0.882157 -0.100175 -0.165840 0.357037 -0.000000 0.000000 0.000000 0.000000 0.000000 0.000000 0.000000 12.769053 -4.309261 2.156662 68.972014 4.646415 6.748917 0.456053 72.836727 -0.083370 -18.599032 15.174647 -2.618507 0.263355 -0.503114 0.000000 0.000000 0.000000 0.000000 0.000000 0.000000 0.000000 
-5.719094 14.827362 -1.099893 -169.562932 -83.102436 -134.986782 5.503376 -0.762058 -2.042422 0.442942 -1.167789 -3.653445 -5.597866 -1.270788 -0.610753 9.206569 -9.563256 -11.628739 -2.910434 -0.131385 -1.816480 0.000000 0.000000 0.000000 2.003544 9.432990 3.303796 -67.412030 -1.858120 -0.477857 -0.760777 -69.527063 -0.044397 8.529739 -0.857544 -0.089098 -0.157002 0.330005 -0.000000 0.000000 0.000000 0.000000 0.000000 0.000000 0.000000 12.748470 -4.704680 2.090386 69.124127 4.618810 6.584606 0.534402 70.224519 -0.078001 -18.850727 15.459848 -2.699315 0.262333 -0.483148 0.000000 0.000000 0.000000 0.000000 0.000000 0.000000 0.000000 
-5.758949 14.875239 -1.132367 -170.597474 -82.908848 -135.486930 5.557039 -0.811152 -2.086458 0.444793 -1.227250 -3.602954 -5.663916 -1.331602 -0.303842 8.893699 -9.839154 -11.690336 -2.924406 -0.134088 -1.786926 0.000000 0.000000 0.000000 1.611199 9.811639 3.310055 -67.359521 -0.747424 -0.570620 -0.913206 -66.663662 -0.036679 7.780642 -0.685779 -0.067229 -0.148246 0.299799 -0.000000 0.000000 0.000000 0.000000 0.000000 0.000000 0.000000 12.696930 -5.149792 1.996252 69.303934 4.555765 6.384542 0.616922 67.593332 -0.072533 -19.152535 15.718587 -2.784021 0.261956 -0.462287 0.000000 0.000000 0.000000 0.000000 0.000000 0.000000 0.000000 
-5.800959 14.927550 -1.168707 -172.339603 -82.712003 -135.340549 5.512478 -0.880668 -2.135001 0.426557 -1.301570 -3.548094 -5.721936 -1.406651 0.028228 8.575315 -10.125394 -11.724299 -2.933794 -0.136956 -1.747216 0.000000 0.000000 0.000000 1.206947 10.256064 3.303630 -67.302512 0.376533 -0.783525 -1.084204 -63.625278 -0.029644 6.998984 -0.339655 -0.036770 -0.140363 0.266940 -0.000000 0.000000 0.000000 0.000000 0.000000 0.000000 0.000000 12.621840 -5.628706 1.876869 69.512495 4.437400 6.122263 0.702564 64.966265 -0.066897 -19.476657 15.947587 -2.868026 0.261836 -0.440771 0.000000 0.000000 0.000000 0.000000 0.000000 0.000000 0.000000 
-5.844447 14.985034 -1.209540 -174.808340 -82.515416 -134.524836 5.353980 -0.976822 -2.176681 0.386798 -1.395110 -3.483122 -5.768048 -1.499954 0.393136 8.275812 -10.463495 -11.751104 -2.934651 -0.139297 -1.704737 0.000000 0.000000 0.000000 0.798251 10.813166 3.281086 -67.226827 1.442227 -1.124375 -1.273718 -60.398863 -0.023735 6.243792 0.170118 -0.002520 -0.134098 0.232527 -0.000000 0.000000 0.000000 0.000000 0.000000 0.000000 0.000000 12.543177 -6.186343 1.733639 69.729554 4.331430 5.852823 0.792426 62.331797 -0.061051 -19.832514 16.142318 -2.951828 0.262253 -0.418548 0.000000 0.000000 0.000000 0.000000 0.000000 0.000000 0.000000 
-5.888578 15.047812 -1.255314 -177.905148 -82.323533 -133.121400 5.077878 -1.098642 -2.208644 0.325188 -1.506210 -3.413156 -5.802271 -1.610247 0.767639 8.002818 -10.800132 -11.758363 -2.931130 -0.141617 -1.657025 0.000000 0.000000 0.000000 0.413502 11.427973 3.248036 -67.128231 2.503729 -1.636152 -1.473999 -57.047661 -0.019397 5.605244 0.853951 0.033821 -0.129968 0.197577 -0.000000 0.000000 0.000000 0.000000 0.000000 0.000000 0.000000 12.467180 -6.758574 1.574771 69.960534 4.161501 5.495702 0.883948 59.750776 -0.055006 -20.160126 16.303750 -3.026430 0.262384 -0.396261 0.000000 0.000000 0.000000 0.000000 0.000000 0.000000 0.000000 
-5.932322 15.116211 -1.306105 178.508429 -82.140504 -131.256798 4.690604 -1.246243 -2.217328 0.244091 -1.634518 -3.335468 -5.824320 -1.737054 1.146402 7.772585 -11.146156 -11.759901 -2.922824 -0.143616 -1.609497 0.000000 0.000000 0.000000 0.064232 12.108811 3.205362 -66.992705 3.538298 -2.322170 -1.678760 -53.611701 -0.016734 5.155777 1.675951 0.070655 -0.128241 0.163496 -0.000000 0.000000 0.000000 0.000000 0.000000 0.000000 0.000000 12.409812 -7.350817 1.406247 70.188729 3.949073 5.064895 0.976841 57.244482 -0.048821 -20.447967 16.431490 -3.089530 0.262241 -0.374193 0.000000 0.000000 0.000000 0.000000 0.000000 0.000000 0.000000 
